<svg width="14" height="14" viewBox="0 0 14 14" fill="none" xmlns="http://www.w3.org/2000/svg">
<path d="M12.3081 5.03633L7.40807 9.95091C7.34974 10.0092 7.28655 10.0505 7.21849 10.0746C7.15043 10.0991 7.07752 10.1113 6.99974 10.1113C6.92196 10.1113 6.84905 10.0991 6.78099 10.0746C6.71293 10.0505 6.64974 10.0092 6.59141 9.95091L1.67682 5.03633C1.54071 4.90022 1.47266 4.73008 1.47266 4.52591C1.47266 4.32174 1.54557 4.14675 1.69141 4.00091C1.83724 3.85508 2.00738 3.78216 2.20182 3.78216C2.39627 3.78216 2.56641 3.85508 2.71224 4.00091L6.99974 8.28841L11.2872 4.00091C11.4234 3.8648 11.591 3.79674 11.7901 3.79674C11.9896 3.79674 12.1622 3.86966 12.3081 4.01549C12.4539 4.16133 12.5268 4.33147 12.5268 4.52591C12.5268 4.72036 12.4539 4.89049 12.3081 5.03633Z" fill="white"/>
</svg>
