<svg width="10" height="7" viewBox="0 0 10 7" fill="none" xmlns="http://www.w3.org/2000/svg">
<path d="M9.57606 2.58696L5.97068 6.54348C5.83201 6.69565 5.68179 6.80978 5.52001 6.88587C5.35823 6.96196 5.18489 7 5 7C4.81511 7 4.64177 6.96196 4.47999 6.88587C4.31821 6.80978 4.16799 6.69565 4.02932 6.54348L0.423943 2.58696C-0.015173 2.10507 -0.113165 1.5537 0.129967 0.932826C0.372174 0.310942 0.805282 -3.52e-08 1.42929 -6.24762e-08L8.57071 -3.74638e-07C9.19472 -4.01914e-07 9.62783 0.310941 9.87003 0.932826C10.1132 1.55369 10.0152 2.10507 9.57606 2.58696Z" fill="#FBBC1B"/>
</svg>
