<svg width="145" height="48" viewBox="0 0 145 48" fill="none" xmlns="http://www.w3.org/2000/svg">
<path d="M64.496 20V4.49H68.016L73.098 15.864H72.372L77.432 4.49H80.974V20H77.3V10.496H78.246L73.846 20H71.558L67.136 10.496H68.148V20H64.496ZM88.2514 20.242C87.2834 20.242 86.4327 20.0147 85.6994 19.56C84.966 19.0907 84.3867 18.416 83.9614 17.536C83.5507 16.656 83.3454 15.6147 83.3454 14.412C83.3454 13.1947 83.5507 12.1533 83.9614 11.288C84.3867 10.408 84.966 9.74067 85.6994 9.286C86.4327 8.81667 87.2834 8.582 88.2514 8.582C89.1167 8.582 89.894 8.78733 90.5834 9.198C91.2874 9.60867 91.7494 10.144 91.9694 10.804H91.7494L91.9914 8.824H95.7534C95.7094 9.32267 95.6654 9.82867 95.6214 10.342C95.592 10.8553 95.5774 11.3613 95.5774 11.86V20H91.7054L91.6614 18.108H91.9254C91.7054 18.7533 91.2434 19.274 90.5394 19.67C89.85 20.0513 89.0874 20.242 88.2514 20.242ZM89.5054 17.338C90.1654 17.338 90.7007 17.1107 91.1114 16.656C91.522 16.1867 91.7274 15.4387 91.7274 14.412C91.7274 13.3853 91.522 12.6447 91.1114 12.19C90.7007 11.7207 90.1654 11.486 89.5054 11.486C88.8454 11.486 88.31 11.7207 87.8994 12.19C87.4887 12.6447 87.2834 13.3853 87.2834 14.412C87.2834 15.4387 87.4814 16.1867 87.8774 16.656C88.288 17.1107 88.8307 17.338 89.5054 17.338ZM100.75 20V11.838H97.1863V8.824H108.208V11.838H104.622V20H100.75ZM109.999 24.994L109.075 21.958C109.779 21.826 110.366 21.6793 110.835 21.518C111.319 21.3713 111.715 21.166 112.023 20.902C112.331 20.638 112.573 20.2933 112.749 19.868L113.299 18.592L113.211 20.066L108.327 8.824H112.463L115.323 16.238H114.597L117.545 8.824H121.417L116.401 20.242C116.005 21.1367 115.58 21.87 115.125 22.442C114.685 23.014 114.201 23.4687 113.673 23.806C113.16 24.1433 112.595 24.3927 111.979 24.554C111.378 24.73 110.718 24.8767 109.999 24.994ZM122.631 24.752V11.86C122.631 11.3613 122.616 10.8553 122.587 10.342C122.557 9.82867 122.513 9.32267 122.455 8.824H126.239L126.481 10.804H126.261C126.466 10.144 126.921 9.60867 127.625 9.198C128.329 8.78733 129.113 8.582 129.979 8.582C130.947 8.582 131.797 8.81667 132.531 9.286C133.264 9.74067 133.836 10.408 134.247 11.288C134.672 12.1533 134.885 13.1947 134.885 14.412C134.885 15.6147 134.672 16.656 134.247 17.536C133.836 18.416 133.264 19.0907 132.531 19.56C131.797 20.0147 130.947 20.242 129.979 20.242C129.128 20.242 128.358 20.0513 127.669 19.67C126.979 19.274 126.525 18.7533 126.305 18.108H126.547V24.752H122.631ZM128.725 17.338C129.399 17.338 129.935 17.1107 130.331 16.656C130.741 16.1867 130.947 15.4387 130.947 14.412C130.947 13.3853 130.741 12.6447 130.331 12.19C129.935 11.7207 129.399 11.486 128.725 11.486C128.065 11.486 127.529 11.7207 127.119 12.19C126.708 12.6447 126.503 13.3853 126.503 14.412C126.503 15.4387 126.708 16.1867 127.119 16.656C127.529 17.1107 128.065 17.338 128.725 17.338ZM64.32 44V32.824H67.554L71.008 38.544L74.44 32.824H77.696V44H74.264V37.224H74.814L71.888 42.174H70.128L67.202 37.224H67.752V44H64.32ZM86.3099 44.242C84.2859 44.242 82.7092 43.7213 81.5799 42.68C80.4652 41.6387 79.9079 40.2087 79.9079 38.39C79.9079 37.2607 80.1425 36.256 80.6119 35.376C81.0812 34.496 81.7412 33.814 82.5919 33.33C83.4425 32.8313 84.4399 32.582 85.5839 32.582C86.7132 32.582 87.6519 32.8313 88.3999 33.33C89.1625 33.814 89.7345 34.4887 90.1159 35.354C90.4972 36.2047 90.6879 37.1947 90.6879 38.324V39.16H83.1859V37.312H87.8059L87.4319 37.62C87.4319 36.784 87.2705 36.168 86.9479 35.772C86.6399 35.3613 86.1999 35.156 85.6279 35.156C84.9679 35.156 84.4619 35.4053 84.1099 35.904C83.7725 36.388 83.6039 37.1213 83.6039 38.104V38.5C83.6039 39.4827 83.8459 40.2013 84.3299 40.656C84.8139 41.1107 85.5105 41.338 86.4199 41.338C87.0065 41.338 87.5565 41.272 88.0699 41.14C88.5979 41.008 89.0965 40.7953 89.5659 40.502L90.5779 43.054C90.0205 43.4353 89.3752 43.7287 88.6419 43.934C87.9085 44.1393 87.1312 44.242 86.3099 44.242ZM98.7027 44.242C96.7961 44.242 95.2781 43.7067 94.1487 42.636C93.0194 41.5653 92.4547 39.9887 92.4547 37.906V36.036C92.4547 33.8947 92.9974 32.1713 94.0827 30.866C95.1681 29.5607 96.7521 28.7173 98.8347 28.336L102.927 27.566L103.939 30.558L99.2087 31.438C98.5194 31.57 97.9401 31.8193 97.4707 32.186C97.0161 32.5527 96.6714 32.9927 96.4367 33.506C96.2167 34.0193 96.1067 34.5913 96.1067 35.222V36.718H95.6227C95.7547 36.0727 96.0041 35.4933 96.3707 34.98C96.7374 34.452 97.2141 34.0413 97.8007 33.748C98.4021 33.44 99.1061 33.286 99.9127 33.286C100.807 33.286 101.607 33.4987 102.311 33.924C103.029 34.3493 103.594 34.958 104.005 35.75C104.43 36.542 104.643 37.488 104.643 38.588C104.643 39.7467 104.393 40.7513 103.895 41.602C103.396 42.438 102.699 43.0907 101.805 43.56C100.925 44.0147 99.8907 44.242 98.7027 44.242ZM98.5707 41.382C99.2601 41.382 99.7954 41.1693 100.177 40.744C100.558 40.304 100.749 39.644 100.749 38.764C100.749 37.8987 100.551 37.246 100.155 36.806C99.7734 36.366 99.2381 36.146 98.5487 36.146C97.8594 36.146 97.3167 36.366 96.9207 36.806C96.5394 37.246 96.3487 37.8913 96.3487 38.742C96.3487 39.622 96.5394 40.282 96.9207 40.722C97.3167 41.162 97.8667 41.382 98.5707 41.382ZM112.843 44.242C110.819 44.242 109.242 43.7213 108.113 42.68C106.998 41.6387 106.441 40.2087 106.441 38.39C106.441 37.2607 106.676 36.256 107.145 35.376C107.614 34.496 108.274 33.814 109.125 33.33C109.976 32.8313 110.973 32.582 112.117 32.582C113.246 32.582 114.185 32.8313 114.933 33.33C115.696 33.814 116.268 34.4887 116.649 35.354C117.03 36.2047 117.221 37.1947 117.221 38.324V39.16H109.719V37.312H114.339L113.965 37.62C113.965 36.784 113.804 36.168 113.481 35.772C113.173 35.3613 112.733 35.156 112.161 35.156C111.501 35.156 110.995 35.4053 110.643 35.904C110.306 36.388 110.137 37.1213 110.137 38.104V38.5C110.137 39.4827 110.379 40.2013 110.863 40.656C111.347 41.1107 112.044 41.338 112.953 41.338C113.54 41.338 114.09 41.272 114.603 41.14C115.131 41.008 115.63 40.7953 116.099 40.502L117.111 43.054C116.554 43.4353 115.908 43.7287 115.175 43.934C114.442 44.1393 113.664 44.242 112.843 44.242ZM119.494 44.374L118.394 41.316C118.834 41.1987 119.208 41.0373 119.516 40.832C119.824 40.612 120.073 40.3333 120.264 39.996C120.469 39.644 120.616 39.2187 120.704 38.72C120.792 38.2067 120.836 37.6127 120.836 36.938V32.824H130.736V44H126.864V35.772H124.356V37.07C124.356 38.5073 124.18 39.7467 123.828 40.788C123.476 41.8147 122.941 42.6287 122.222 43.23C121.518 43.8313 120.609 44.2127 119.494 44.374ZM133.371 44V32.824H137.265V36.234H139.685C141.239 36.234 142.405 36.5567 143.183 37.202C143.96 37.8327 144.349 38.7713 144.349 40.018C144.349 40.81 144.158 41.5067 143.777 42.108C143.395 42.7093 142.853 43.1787 142.149 43.516C141.459 43.8387 140.638 44 139.685 44H133.371ZM137.265 41.558H139.025C139.597 41.558 140.037 41.4333 140.345 41.184C140.667 40.9347 140.829 40.568 140.829 40.084C140.829 39.5853 140.675 39.226 140.367 39.006C140.073 38.786 139.626 38.676 139.025 38.676H137.265V41.558Z" fill="black"/>
<path d="M0 47V1H10.4673L25.5794 34.7333H23.4206L38.4673 1H49V47H38.0748V18.8128H40.8879L27.8037 47H21L7.85047 18.8128H10.8598V47H0Z" fill="#FBBC1B"/>
</svg>
