<svg width="24" height="24" viewBox="0 0 24 24" fill="none" xmlns="http://www.w3.org/2000/svg">
<path fill-rule="evenodd" clip-rule="evenodd" d="M9.6001 4.7999C8.64532 4.7999 7.72964 5.17919 7.05451 5.85432C6.37938 6.52945 6.0001 7.44512 6.0001 8.3999V13.1999C6.0001 14.7912 6.63224 16.3173 7.75746 17.4425C8.88268 18.5678 10.4088 19.1999 12.0001 19.1999C13.5914 19.1999 15.1175 18.5678 16.2427 17.4425C17.368 16.3173 18.0001 14.7912 18.0001 13.1999V8.3999C18.0001 8.08164 18.1265 7.77642 18.3516 7.55137C18.5766 7.32633 18.8818 7.1999 19.2001 7.1999C19.5184 7.1999 19.8236 7.32633 20.0486 7.55137C20.2737 7.77642 20.4001 8.08164 20.4001 8.3999V13.1999C20.4001 14.303 20.1828 15.3953 19.7607 16.4144C19.3385 17.4336 18.7198 18.3596 17.9398 19.1396C17.1598 19.9196 16.2338 20.5384 15.2146 20.9605C14.1955 21.3826 13.1032 21.5999 12.0001 21.5999C10.897 21.5999 9.80469 21.3826 8.78556 20.9605C7.76642 20.5384 6.84041 19.9196 6.0604 19.1396C5.28039 18.3596 4.66165 17.4336 4.23951 16.4144C3.81737 15.3953 3.6001 14.303 3.6001 13.1999V8.3999C3.6001 6.8086 4.23224 5.28248 5.35746 4.15726C6.48268 3.03204 8.0088 2.3999 9.6001 2.3999C11.1914 2.3999 12.7175 3.03204 13.8427 4.15726C14.968 5.28248 15.6001 6.8086 15.6001 8.3999V13.1999C15.6001 14.1547 15.2208 15.0704 14.5457 15.7455C13.8706 16.4206 12.9549 16.7999 12.0001 16.7999C11.0453 16.7999 10.1296 16.4206 9.45451 15.7455C8.77938 15.0704 8.4001 14.1547 8.4001 13.1999V8.3999C8.4001 8.08164 8.52653 7.77642 8.75157 7.55137C8.97661 7.32633 9.28184 7.1999 9.6001 7.1999C9.91836 7.1999 10.2236 7.32633 10.4486 7.55137C10.6737 7.77642 10.8001 8.08164 10.8001 8.3999V13.1999C10.8001 13.5182 10.9265 13.8234 11.1516 14.0484C11.3766 14.2735 11.6818 14.3999 12.0001 14.3999C12.3184 14.3999 12.6236 14.2735 12.8486 14.0484C13.0737 13.8234 13.2001 13.5182 13.2001 13.1999V8.3999C13.2001 7.44512 12.8208 6.52945 12.1457 5.85432C11.4706 5.17919 10.5549 4.7999 9.6001 4.7999Z" fill="white"/>
</svg>
