<svg width="62" height="62" viewBox="0 0 62 62" fill="none" xmlns="http://www.w3.org/2000/svg">
<path d="M31.0013 41.3332L41.3346 30.9998L31.0013 20.6665L27.3846 24.2832L31.518 28.4165H20.668V33.5832H31.518L27.3846 37.7165L31.0013 41.3332ZM31.0013 56.8332C27.4277 56.8332 24.0694 56.1546 20.9263 54.7975C17.7832 53.4421 15.0492 51.6019 12.7242 49.2769C10.3992 46.9519 8.55902 44.2179 7.20364 41.0748C5.84652 37.9318 5.16797 34.5734 5.16797 30.9998C5.16797 27.4262 5.84652 24.0679 7.20364 20.9248C8.55902 17.7818 10.3992 15.0478 12.7242 12.7228C15.0492 10.3978 17.7832 8.5567 20.9263 7.19959C24.0694 5.8442 27.4277 5.1665 31.0013 5.1665C34.5749 5.1665 37.9332 5.8442 41.0763 7.19959C44.2194 8.5567 46.9534 10.3978 49.2784 12.7228C51.6034 15.0478 53.4436 17.7818 54.799 20.9248C56.1561 24.0679 56.8346 27.4262 56.8346 30.9998C56.8346 34.5734 56.1561 37.9318 54.799 41.0748C53.4436 44.2179 51.6034 46.9519 49.2784 49.2769C46.9534 51.6019 44.2194 53.4421 41.0763 54.7975C37.9332 56.1546 34.5749 56.8332 31.0013 56.8332Z" fill="#FBBC1B"/>
</svg>
