<svg width="35" height="35" viewBox="0 0 35 35" fill="none" xmlns="http://www.w3.org/2000/svg">
<path d="M17.5013 23.3332L23.3346 17.4998L17.5013 11.6665L15.4596 13.7082L17.793 16.0415H11.668V18.9582H17.793L15.4596 21.2915L17.5013 23.3332ZM17.5013 32.0832C15.4839 32.0832 13.5881 31.7001 11.8138 30.934C10.0395 30.1689 8.49609 29.13 7.18359 27.8175C5.87109 26.505 4.83227 24.9616 4.06714 23.1873C3.30102 21.413 2.91797 19.5172 2.91797 17.4998C2.91797 15.4825 3.30102 13.5866 4.06714 11.8123C4.83227 10.038 5.87109 8.49463 7.18359 7.18213C8.49609 5.86963 10.0395 4.83032 11.8138 4.06421C13.5881 3.29907 15.4839 2.9165 17.5013 2.9165C19.5187 2.9165 21.4145 3.29907 23.1888 4.06421C24.9631 4.83032 26.5065 5.86963 27.819 7.18213C29.1315 8.49463 30.1703 10.038 30.9355 11.8123C31.7016 13.5866 32.0846 15.4825 32.0846 17.4998C32.0846 19.5172 31.7016 21.413 30.9355 23.1873C30.1703 24.9616 29.1315 26.505 27.819 27.8175C26.5065 29.13 24.9631 30.1689 23.1888 30.934C21.4145 31.7001 19.5187 32.0832 17.5013 32.0832Z" fill="white"/>
</svg>
