<svg width="31" height="31" viewBox="0 0 31 31" fill="none" xmlns="http://www.w3.org/2000/svg">
<path d="M15.4998 21.3333L21.3332 15.5L15.4998 9.66663L13.4582 11.7083L15.7915 14.0416H9.6665V16.9583H15.7915L13.4582 19.2916L15.4998 21.3333ZM15.4998 30.0833C13.4825 30.0833 11.5866 29.7002 9.81234 28.9341C8.03803 28.169 6.49463 27.1302 5.18213 25.8177C3.86963 24.5052 2.83081 22.9618 2.06567 21.1875C1.29956 19.4132 0.916504 17.5173 0.916504 15.5C0.916504 13.4826 1.29956 11.5868 2.06567 9.81246C2.83081 8.03815 3.86963 6.49475 5.18213 5.18225C6.49463 3.86975 8.03803 2.83045 9.81234 2.06433C11.5866 1.2992 13.4825 0.916626 15.4998 0.916626C17.5172 0.916626 19.413 1.2992 21.1873 2.06433C22.9616 2.83045 24.505 3.86975 25.8175 5.18225C27.13 6.49475 28.1689 8.03815 28.934 9.81246C29.7001 11.5868 30.0832 13.4826 30.0832 15.5C30.0832 17.5173 29.7001 19.4132 28.934 21.1875C28.1689 22.9618 27.13 24.5052 25.8175 25.8177C24.505 27.1302 22.9616 28.169 21.1873 28.9341C19.413 29.7002 17.5172 30.0833 15.4998 30.0833Z" fill="#D9D9D9"/>
</svg>
