<svg width="19" height="18" viewBox="0 0 19 18" fill="none" xmlns="http://www.w3.org/2000/svg">
<g clip-path="url(#clip0_57_1985)">
<path fill-rule="evenodd" clip-rule="evenodd" d="M8.84306 13.6887H9.87378C9.87378 13.6887 10.183 13.6372 10.3376 13.4826C10.4922 13.328 10.4922 13.0188 10.4922 13.0188C10.4922 13.0188 10.4922 11.6788 11.1106 11.4727C11.7291 11.2665 12.5536 12.8126 13.3782 13.3795C13.9966 13.8433 14.4605 13.7403 14.4605 13.7403L16.728 13.6887C16.728 13.6887 17.9133 13.6372 17.3465 12.658C17.2949 12.6065 17.0372 11.988 15.6458 10.6996C14.2028 9.35972 14.4089 9.61739 16.1096 7.29829C17.1403 5.90682 17.5526 5.08225 17.4495 4.66996C17.3465 4.30921 16.5734 4.41229 16.5734 4.41229H13.9966C13.9966 4.41229 13.7905 4.36075 13.6874 4.46382C13.5328 4.56689 13.4813 4.7215 13.4813 4.7215C13.4813 4.7215 13.069 5.80375 12.5536 6.73139C11.4198 8.63822 10.956 8.74129 10.8014 8.63822C10.3891 8.38054 10.4922 7.50443 10.4922 6.93754C10.4922 5.08225 10.8014 4.30921 9.92531 4.10307C9.66763 4.05154 9.46149 4 8.73999 4C7.81235 4 7.03931 4 6.62702 4.20614C6.31781 4.36075 6.11167 4.66996 6.26628 4.66996C6.42088 4.66996 6.83317 4.77304 7.03931 5.03071C7.24545 5.49454 7.24545 6.26757 7.24545 6.26757C7.24545 6.26757 7.40006 8.48361 6.8847 8.74129C6.52395 8.94743 6.06013 8.53514 5.02942 6.78293C4.51406 5.90682 4.10177 4.87611 4.10177 4.87611C4.10177 4.87611 4.05024 4.66996 3.89563 4.56689C3.74102 4.46382 3.48335 4.41229 3.48335 4.41229H1.06117C1.06117 4.41229 0.700417 4.41229 0.54581 4.56689C0.442738 4.7215 0.54581 4.97918 0.54581 4.97918C0.54581 4.97918 2.45263 9.41125 4.61713 11.6788C6.62703 13.8433 8.84306 13.6887 8.84306 13.6887Z" fill="#6A94EB"/>
</g>
<defs>
<clipPath id="clip0_57_1985">
<rect width="18" height="18" fill="white" transform="translate(0.5)"/>
</clipPath>
</defs>
</svg>
