<svg width="19" height="18" viewBox="0 0 19 18" fill="none" xmlns="http://www.w3.org/2000/svg">
<path d="M15.6215 5.13018C13.4615 1.80018 9.05151 0.810183 5.63151 2.88018C2.30151 4.95018 1.22151 9.45018 3.38151 12.7802L3.56151 13.0502L2.84151 15.7502L5.54151 15.0302L5.81151 15.2102C6.98151 15.8402 8.24151 16.2002 9.50151 16.2002C10.8515 16.2002 12.2015 15.8402 13.3715 15.1202C16.7015 12.9602 17.6915 8.55018 15.6215 5.13018ZM13.7315 12.0602C13.3715 12.6002 12.9215 12.9602 12.2915 13.0502C11.9315 13.0502 11.4815 13.2302 9.68151 12.5102C8.15151 11.7902 6.89151 10.6202 5.99151 9.27018C5.45151 8.64018 5.18151 7.83018 5.09151 7.02018C5.09151 6.30018 5.36151 5.67018 5.81151 5.22018C5.99151 5.04018 6.17151 4.95018 6.35151 4.95018H6.80151C6.98151 4.95018 7.16151 4.95018 7.25151 5.31018C7.43151 5.76018 7.88151 6.84018 7.88151 6.93018C7.97151 7.02018 7.97151 7.20018 7.88151 7.29018C7.97151 7.47018 7.88151 7.65018 7.79151 7.74018C7.70151 7.83018 7.61151 8.01018 7.52151 8.10018C7.34151 8.19018 7.25151 8.37018 7.34151 8.55018C7.70151 9.09018 8.15151 9.63018 8.60151 10.0802C9.14151 10.5302 9.68151 10.8902 10.3115 11.1602C10.4915 11.2502 10.6715 11.2502 10.7615 11.0702C10.8515 10.8902 11.3015 10.4402 11.4815 10.2602C11.6615 10.0802 11.7515 10.0802 11.9315 10.1702L13.3715 10.8902C13.5515 10.9802 13.7315 11.0702 13.8215 11.1602C13.9115 11.4302 13.9115 11.7902 13.7315 12.0602Z" fill="#3BB047"/>
</svg>
